<mxfile host="app.diagrams.net" modified="2023-05-05T01:38:13.752Z" agent="Mozilla/5.0 (Windows NT 10.0; Win64; x64) AppleWebKit/537.36 (KHTML, like Gecko) Chrome/112.0.0.0 Safari/537.36 Edg/112.0.1722.48" version="21.2.9" etag="CxgcSmTgNlKLIvKs_wAX" type="github">
  <diagram name="第 1 页" id="ez7DIehzS6OZl0nY0rgS">
    <mxGraphModel>
      <root>
        <mxCell id="0" />
        <mxCell id="1" parent="0" />
      </root>
    </mxGraphModel>
  </diagram>
</mxfile>
